<svg xmlns="http://www.w3.org/2000/svg" width="800" height="800" viewBox="0 0 800 800" version="1.1">
	<path d="M 403 151.087 C 398.875 152.128, 380.650 156.605, 362.500 161.036 C 344.350 165.467, 322.975 170.691, 315 172.646 C 307.025 174.601, 299.488 176.841, 298.250 177.623 L 296 179.046 296 216.023 C 296 236.578, 295.610 253, 295.122 253 C 294.639 253, 292.614 252.319, 290.621 251.486 C 280.274 247.163, 258.826 245.026, 244.711 246.911 C 208.668 251.725, 174.676 270.024, 140.790 302.855 C 111.969 330.778, 87.355 364.676, 68.074 403 C 58.991 421.053, 48.248 446.695, 47.287 452.617 C 46.791 455.676, 48.139 459.003, 49.872 458.998 C 50.218 458.997, 54.017 456.361, 58.316 453.141 C 79.780 437.059, 104.936 428.630, 131 428.787 C 153.226 428.920, 172.232 433.959, 197 446.283 L 211.500 453.498 221.500 453.499 C 231.259 453.500, 231.698 453.399, 239.731 449.321 C 252.417 442.879, 262.156 435.050, 278.500 418.157 C 324.640 370.465, 336.811 359.342, 359.435 344.193 C 368.644 338.027, 389.539 326.939, 396.250 324.658 C 397.901 324.096, 398 326.881, 398 374.012 L 398 423.962 395.750 424.394 C 370.348 429.273, 355.713 435.518, 317 457.994 C 286.886 475.478, 266.847 484.985, 238 495.476 C 207.986 506.391, 188.784 517.104, 180.692 527.448 C 174.535 535.320, 172.500 540.789, 172.501 549.458 C 172.502 560.078, 175.313 566.202, 184.322 575.211 C 219.379 610.268, 322.496 630.628, 429 623.522 C 484.346 619.829, 525.794 610.860, 558.627 595.471 C 573.367 588.563, 583.060 582.168, 590.994 574.118 C 600.061 564.917, 602.505 559.679, 602.481 549.500 C 602.464 542.668, 602.045 540.703, 599.610 536.046 C 596.289 529.693, 588.020 521.260, 581.246 517.318 C 578.636 515.800, 575.075 513.599, 573.332 512.429 C 564.571 506.544, 522.081 493.332, 500.806 489.878 C 496.574 489.191, 493.338 488.262, 493.615 487.814 C 493.892 487.366, 495.074 487, 496.242 487 C 500.401 487, 522.725 478.731, 536.665 472.026 C 544.456 468.279, 559.013 460.614, 569.013 454.993 C 608.881 432.582, 629.529 425.394, 657.202 424.292 C 667.765 423.872, 673.150 424.147, 680.702 425.493 C 701.760 429.246, 723.364 438.502, 741.500 451.541 C 746.450 455.100, 751.127 457.896, 751.893 457.756 C 756.922 456.833, 755.607 451.474, 743.854 425.004 C 711.556 352.262, 652.990 287.551, 593.500 258.873 C 571.425 248.232, 555.778 244.117, 534.250 243.293 L 520 242.748 520 213.485 C 520 187.040, 519.831 184.030, 518.250 182.230 C 517.225 181.063, 511.734 178.777, 505 176.711 C 498.675 174.772, 476.175 167.744, 455 161.095 C 433.825 154.445, 415.150 149.047, 413.500 149.099 C 411.850 149.152, 407.125 150.046, 403 151.087 M 408.500 164.698 C 407.400 164.954, 389.175 169.358, 368 174.484 C 346.825 179.609, 325.133 184.798, 319.795 186.014 L 310.089 188.226 309.795 205.114 C 309.519 220.886, 309.970 224.822, 311.498 220.008 C 312.293 217.502, 319.368 208.262, 322.864 205.163 C 327.680 200.895, 335.433 196.319, 340.900 194.518 C 345.122 193.128, 348.176 192.864, 354.900 193.311 C 359.630 193.626, 364.414 194.161, 365.532 194.501 C 367.382 195.064, 367.529 194.754, 367.175 191.041 C 366.746 186.543, 368.183 184, 371.154 184 C 373.664 184, 374.481 186.645, 374.888 196.089 C 374.959 197.730, 375.824 199.060, 377.250 199.720 C 378.488 200.293, 381.637 202.653, 384.250 204.966 L 389 209.170 389 194.707 C 389 179.189, 389.520 177.480, 393.750 179.083 C 395.972 179.925, 396 180.167, 396 198.501 C 396 216.014, 396.134 217.334, 398.361 221.783 C 409.359 243.755, 409.896 274.368, 399.696 297.960 C 397.785 302.382, 396.442 306, 396.712 306 C 396.983 306, 400.304 304.088, 404.093 301.750 L 410.983 297.500 410.991 230.750 C 410.996 194.037, 410.887 164.052, 410.750 164.116 C 410.613 164.180, 409.600 164.442, 408.500 164.698 M 425.409 227.998 C 425.459 260.998, 425.644 287.998, 425.820 287.998 C 425.996 287.999, 428.133 286.628, 430.570 284.952 L 435 281.904 435 226.071 L 435 170.237 430.557 169.119 C 428.114 168.503, 425.935 168, 425.716 168 C 425.497 168, 425.358 194.999, 425.409 227.998 M 445.038 224.577 C 445.037 252.395, 445.366 275, 445.768 274.811 C 446.171 274.623, 448.188 273.418, 450.250 272.135 L 454 269.802 454 222.999 L 454 176.196 450.851 175.098 C 449.119 174.494, 447.102 174, 446.370 174 C 445.279 174, 445.039 183.133, 445.038 224.577 M 465 221.441 L 465 263.041 469 261 L 473 258.959 473 220.539 C 473 199.407, 472.663 181.919, 472.250 181.677 C 471.837 181.434, 470.038 180.922, 468.250 180.538 L 465 179.841 465 221.441 M 483 219.037 L 483 252.839 487.014 251.262 L 491.028 249.686 490.764 218.749 L 490.500 187.813 486.750 186.525 L 483 185.236 483 219.037 M 501 218.186 L 501 246.233 503.250 245.630 C 504.488 245.299, 506.063 245.021, 506.750 245.014 C 507.718 245.003, 508 239.026, 508 218.500 C 508 203.925, 507.885 192, 507.743 192 C 507.602 192, 506.027 191.581, 504.243 191.070 L 501 190.140 501 218.186 M 345.289 209.465 C 331.949 213.855, 320.208 229.094, 316.429 246.923 C 315.662 250.540, 315.027 257.911, 315.017 263.303 C 314.986 280.942, 319.745 295.183, 329.086 305.404 C 345.581 323.451, 368.004 319.399, 382.279 295.792 C 388.183 286.028, 390.200 278.446, 390.748 263.960 C 391.296 249.501, 390.047 242.948, 384.508 231.220 C 380.533 222.803, 372.874 214.545, 365.945 211.206 C 360.153 208.414, 350.860 207.631, 345.289 209.465 M 361.455 259.455 C 355.639 265.271, 361.713 274.268, 368.935 270.534 C 373.702 268.069, 374.394 263.303, 370.545 259.455 C 367.431 256.340, 364.569 256.340, 361.455 259.455 M 516.500 258.478 C 496.787 262.131, 476.629 272.692, 432.500 302.484 C 425.350 307.311, 420.400 311.001, 421.500 310.684 C 429.548 308.366, 512.910 290, 515.382 290 C 517.209 290, 534.832 294.821, 588.941 310.123 C 602.383 313.925, 614.189 317.766, 615.176 318.660 C 616.815 320.143, 616.994 322.900, 617.236 350.392 C 617.487 378.966, 617.593 380.484, 619.335 380.187 C 622.888 379.580, 643.593 382.119, 651.500 384.131 C 672.708 389.528, 692.834 399.958, 716.233 417.677 C 721.587 421.731, 726.874 426.022, 727.983 427.212 C 729.092 428.403, 730 429.005, 730 428.550 C 730 428.094, 726.496 420.922, 722.214 412.611 C 695.062 359.912, 650.056 309.264, 606.222 282.077 C 573.472 261.765, 542.590 253.642, 516.500 258.478 M 466.507 259.989 C 466.157 260.555, 466.558 260.723, 467.448 260.382 C 469.180 259.717, 469.497 259, 468.059 259 C 467.541 259, 466.843 259.445, 466.507 259.989 M 242.500 260.705 C 236.892 261.464, 223.527 265.332, 215.082 268.642 C 175.370 284.205, 130.384 326.436, 96.718 379.758 C 90.413 389.743, 71 427.023, 71 429.145 C 71 429.664, 75.388 426.583, 80.750 422.299 C 103.902 403.803, 134.544 386.091, 158 377.645 L 167.500 374.225 168 349.146 C 168.419 328.115, 168.754 323.814, 170.075 322.495 C 171.073 321.498, 190.826 316.654, 224.013 309.268 L 276.377 297.614 284.438 299.719 C 288.872 300.877, 293.175 302.094, 294 302.424 C 295.304 302.944, 295.474 300.709, 295.298 285.341 L 295.096 267.660 291.798 266.239 C 289.984 265.458, 284.280 263.735, 279.122 262.409 C 271.470 260.444, 267.512 260.028, 257.622 260.150 C 250.955 260.232, 244.150 260.482, 242.500 260.705 M 477.500 312.615 C 461.550 316.174, 440.400 320.784, 430.500 322.861 L 412.500 326.637 412.224 342.505 L 411.947 358.373 415.008 354.147 C 416.693 351.822, 417.757 349.377, 417.374 348.711 C 416.992 348.045, 417.041 347.827, 417.482 348.226 C 417.923 348.625, 420.868 346.713, 424.026 343.978 C 440.864 329.391, 462 328.058, 480.435 340.420 L 487 344.822 487 333.993 C 487 328.037, 487.273 322.452, 487.607 321.582 C 487.960 320.663, 489.382 320, 491 320 C 492.618 320, 494.040 320.663, 494.393 321.582 C 494.727 322.452, 495 329.946, 495 338.236 L 495 353.308 498.375 359.404 C 504.535 370.529, 507.670 381.948, 508.600 396.646 C 509.893 417.088, 503.348 439.329, 491.587 454.450 C 489.898 456.623, 489.187 458.151, 490.008 457.847 C 490.828 457.543, 495.887 455.840, 501.250 454.064 L 511 450.835 511 378.418 L 511 306 508.750 306.072 C 507.512 306.112, 493.450 309.056, 477.500 312.615 M 527 373.035 C 527 433.722, 527.092 437.020, 528.750 436.105 C 529.712 435.574, 531.850 433.871, 533.500 432.320 L 536.500 429.500 536.234 370.404 L 535.969 311.307 532.118 310.154 C 530.001 309.519, 527.983 309, 527.634 309 C 527.285 309, 527 337.816, 527 373.035 M 256 317.059 C 209.457 327.032, 190.822 330.996, 185.750 332.002 L 180 333.142 179.854 342.321 C 179.773 347.369, 179.645 354.306, 179.568 357.736 C 179.491 361.166, 179.694 363.641, 180.019 363.236 C 183.991 358.291, 185.985 354.770, 185.395 353.744 C 185.001 353.060, 185.035 352.821, 185.470 353.214 C 185.905 353.606, 188.564 351.898, 191.380 349.417 C 194.196 346.936, 199.761 343.285, 203.746 341.303 C 218.572 333.930, 235.149 336.411, 248.319 347.975 L 251.559 350.820 251.182 341.113 C 250.783 330.842, 251.690 328.408, 255.630 329.167 C 258.211 329.665, 259.063 334.275, 258.858 346.630 C 258.680 357.434, 258.767 357.925, 261.837 363.365 C 266.941 372.409, 269.979 384.559, 270.259 397.044 C 270.392 402.960, 270.837 407.594, 271.250 407.342 C 271.663 407.089, 272 385.984, 272 360.441 C 272 323.910, 271.733 314.018, 270.750 314.083 C 270.063 314.129, 263.425 315.468, 256 317.059 M 548 368 C 548 397.150, 548.255 421, 548.567 421 C 549.323 421, 556.317 415.768, 557.184 414.554 C 557.560 414.028, 557.897 391.916, 557.934 365.417 L 558.001 317.238 553.558 316.119 C 551.114 315.503, 548.864 315, 548.557 315 C 548.251 315, 548 338.850, 548 368 M 569 363.294 C 569 406.076, 569.011 406.300, 570.976 404.521 C 572.063 403.538, 572.669 402.273, 572.322 401.712 C 571.969 401.140, 572.181 400.994, 572.805 401.379 C 573.417 401.758, 574.837 401.494, 575.959 400.793 C 577.956 399.546, 578 398.692, 578 360.928 L 578 322.337 573.500 321.307 L 569 320.277 569 363.294 M 589 358.433 C 589 376.345, 589.255 391, 589.567 391 C 589.878 391, 591.678 389.822, 593.567 388.381 L 597 385.763 597 356.949 L 597 328.135 594.750 327.488 C 588.423 325.669, 589 322.562, 589 358.433 M 483 339.378 C 483 339.585, 483.788 340.373, 484.750 341.128 C 486.336 342.371, 486.371 342.336, 485.128 340.750 C 483.821 339.084, 483 338.555, 483 339.378 M 445.396 349.358 C 435.575 352.576, 427.407 360.698, 421.576 373.043 C 416.189 384.448, 414.592 391.779, 414.616 405 C 414.651 423.991, 419.391 438.134, 429.040 448.042 C 443.541 462.929, 464.619 461.984, 478.051 445.843 C 488.207 433.639, 492.337 421.118, 492.347 402.500 C 492.356 384.683, 487.714 370.734, 478.177 359.927 C 469.888 350.534, 455.733 345.970, 445.396 349.358 M 211.500 353.227 C 196.646 358.522, 184.968 379.548, 185.017 400.910 C 185.088 431.889, 205.255 453.453, 227.585 446.429 C 238.984 442.844, 249.732 428.551, 252.985 412.654 C 254.646 404.540, 254.416 389.666, 252.521 382.581 C 247.549 363.997, 234.871 351.923, 220.500 352.089 C 217.200 352.127, 213.150 352.639, 211.500 353.227 M 227.455 397.455 C 223.606 401.303, 224.298 406.069, 229.065 408.534 C 236.566 412.413, 242.621 401.350, 235.663 396.477 C 232.644 394.362, 230.263 394.646, 227.455 397.455 M 461.189 400.039 C 458.215 402.809, 458.332 407.423, 461.455 410.545 C 462.805 411.895, 464.850 413, 466 413 C 468.835 413, 473 408.645, 473 405.680 C 473 404.354, 472.067 402.084, 470.927 400.635 C 468.394 397.414, 464.277 397.162, 461.189 400.039 M 344.500 492.627 C 331.334 493.432, 306.654 496.192, 291.526 498.551 C 247.923 505.351, 214.041 517.062, 199.336 530.414 C 186.891 541.716, 185.713 552.035, 195.617 562.998 C 221.106 591.211, 316.947 610.134, 413.500 606.016 C 469.530 603.627, 514.762 595.593, 547.739 582.173 C 557.871 578.050, 568.166 572.077, 567.367 570.785 C 566.953 570.115, 567.155 569.978, 567.889 570.431 C 569.201 571.242, 573.575 568.228, 578.838 562.887 C 599.563 541.857, 574.527 518.972, 515 504.534 C 498.940 500.639, 477.878 497.108, 457.214 494.848 C 441.808 493.163, 430.722 492.754, 394.500 492.531 C 370.300 492.382, 347.800 492.425, 344.500 492.627 M 607.813 506.683 C 608.534 506.972, 609.397 506.936, 609.729 506.604 C 610.061 506.272, 609.471 506.036, 608.417 506.079 C 607.252 506.127, 607.015 506.364, 607.813 506.683 M 367.500 509.403 C 363.570 511.137, 361.110 513.991, 359.501 518.684 C 358.352 522.035, 357.724 522.568, 354.346 523.056 C 349.660 523.733, 346 525.930, 346 528.066 C 346 528.938, 347.111 530.695, 348.469 531.971 C 349.827 533.247, 350.658 534.745, 350.315 535.300 C 349.964 535.867, 350.188 536.002, 350.827 535.607 C 351.452 535.221, 354.178 535.691, 356.884 536.652 L 361.805 538.400 361.652 547.095 L 361.500 555.790 356.500 556.433 C 346.202 557.756, 341.919 560.787, 345.037 564.545 C 349.097 569.437, 381.369 573.192, 402.570 571.240 C 422.498 569.405, 434 565.855, 434 561.541 C 434 559.663, 427.312 556.742, 421.788 556.208 L 417.076 555.753 418.404 553.126 C 420.600 548.781, 422.253 540.165, 421.580 536.573 C 420.659 531.663, 419.005 530.652, 414.070 531.981 C 411.825 532.586, 405.477 533.009, 399.964 532.923 C 390.183 532.769, 389.959 532.713, 390.720 530.633 C 392.033 527.043, 391.362 520.321, 389.291 516.310 C 385.615 509.192, 375.349 505.938, 367.500 509.403 M 371.212 514.203 C 367.283 515.247, 364.009 520.038, 364.004 524.750 C 364 527.786, 363.774 528, 360.559 528 C 353.660 528, 355.364 529.662, 366.852 534.134 C 368.808 534.896, 369.088 535.509, 368.511 537.775 C 365.611 549.179, 366.228 554.563, 370.789 557.637 C 377.114 561.899, 396.707 562.028, 405.563 557.865 C 410.931 555.342, 415.001 549.167, 415.766 542.388 L 416.272 537.894 413.386 538.660 C 411.799 539.082, 403.978 539.428, 396.007 539.430 C 379.681 539.434, 378.758 538.953, 383.178 532.756 C 386.507 528.088, 386.410 520.955, 382.971 517.516 C 379.763 514.309, 375.418 513.084, 371.212 514.203 M 371 524.393 C 371 527.248, 373.374 528.459, 375.039 526.453 C 376.650 524.512, 375.517 522, 373.031 522 C 371.555 522, 371 522.654, 371 524.393" stroke="none" fill="#359c96" fill-rule="evenodd"/>
</svg>
